/* XPM */
static char *openofficeorg23-calc[] = {
/* columns rows colors chars-per-pixel */
"32 32 257 2",
"   c #132A2E",
".  c #102732",
"X  c #132D3A",
"o  c #132C37",
"O  c #15313E",
"+  c #1B3737",
"@  c #232F36",
"#  c #28373F",
"$  c #213F3D",
"%  c #163543",
"&  c #183747",
"*  c #183847",
"=  c #183B4B",
"-  c #1B3E50",
";  c #243944",
":  c #233F4C",
">  c #293A42",
",  c #284027",
"<  c #324F2F",
"1  c #3A5727",
"2  c #37513F",
"3  c #1C4153",
"4  c #1D465A",
"5  c #2A4945",
"6  c #244454",
"7  c #23495A",
"8  c #2B4654",
"9  c #284857",
"0  c #2A4C5C",
"q  c #204659",
"w  c #304A4B",
"e  c #354F5B",
"r  c #2E5365",
"t  c #3C5865",
"y  c #355768",
"u  c #405C23",
"i  c #446226",
"p  c #40602F",
"a  c #4D6C22",
"s  c #4B6C2F",
"d  c #576335",
"f  c #627E0B",
"g  c #616E3A",
"h  c #637335",
"j  c #42525B",
"k  c #415D6A",
"l  c #4F5C62",
"z  c #5F6851",
"x  c #4A626D",
"c  c #466572",
"v  c #4A6875",
"b  c #4B6C7B",
"n  c #486572",
"m  c #556C77",
"M  c #51707F",
"N  c #5A737F",
"B  c #58656B",
"V  c #61674F",
"C  c #6C705E",
"Z  c #727A58",
"A  c #63727A",
"S  c #747869",
"D  c #777C68",
"F  c #737C7F",
"G  c #5C7582",
"H  c #5D7886",
"J  c #557483",
"K  c #637C8A",
"L  c #6B7D86",
"P  c #737D82",
"I  c #64810B",
"U  c #6C8B0C",
"Y  c #6D8719",
"T  c #72930D",
"R  c #76980D",
"E  c #7A9D0E",
"W  c #70971F",
"Q  c #779A17",
"!  c #748D25",
"~  c #7E9C21",
"^  c #789227",
"/  c #7D9433",
"(  c #6B8A25",
")  c #7EA20E",
"_  c #7A894B",
"`  c #7F8767",
"'  c #65808E",
"]  c #668290",
"[  c #70848D",
"{  c #7B868B",
"}  c #788186",
"|  c #748B95",
" . c #7F929C",
".. c #829E2E",
"X. c #839C36",
"o. c #859D39",
"O. c #81A50F",
"+. c #84A90F",
"@. c #88AE0F",
"#. c #86AD10",
"$. c #88AF10",
"%. c #84A719",
"&. c #8CB310",
"*. c #8FB810",
"=. c #8CB218",
"-. c #90B618",
";. c #91BA11",
":. c #95BC1A",
">. c #87A725",
",. c #8BA43C",
"<. c #92AD3D",
"1. c #99BE28",
"2. c #98B53D",
"3. c #95B338",
"4. c #879B49",
"5. c #818573",
"6. c #8C976A",
"7. c #8C907D",
"8. c #8D9876",
"9. c #909C69",
"0. c #939D7E",
"q. c #919975",
"w. c #83A248",
"e. c #95A955",
"r. c #9AB641",
"t. c #9AB747",
"y. c #9FBA51",
"u. c #95A661",
"i. c #A4BB5C",
"p. c #A0AD75",
"a. c #A5B76C",
"s. c #A7B67A",
"d. c #96C111",
"f. c #9AC512",
"g. c #9BC31C",
"h. c #9DCA13",
"j. c #9FCA1A",
"k. c #9EC32B",
"l. c #9EC232",
"z. c #A0CB1C",
"x. c #A2CC20",
"c. c #A5CD2B",
"v. c #A1C335",
"b. c #A2C33B",
"n. c #A9CC3D",
"m. c #A8D02C",
"M. c #AED33E",
"N. c #A5C543",
"B. c #ABCB46",
"V. c #A7C548",
"C. c #A6C152",
"Z. c #AED046",
"A. c #B0D443",
"S. c #B2D449",
"D. c #B8D854",
"F. c #B6D555",
"G. c #AEC566",
"H. c #AFC07C",
"J. c #B4CC68",
"K. c #BED96B",
"L. c #B5D167",
"P. c #BDD27B",
"I. c #B5C975",
"U. c #C2DD6D",
"Y. c #C4DA7F",
"T. c #82898C",
"R. c #888C8E",
"E. c #818E94",
"W. c #8D8F91",
"Q. c #879297",
"!. c #89979E",
"~. c #949B82",
"^. c #959A89",
"/. c #969B9D",
"(. c #94989A",
"). c #8E9DA4",
"_. c #8C9FA9",
"`. c #959DA0",
"'. c #9EA196",
"]. c #8DA1AA",
"[. c #92A4AC",
"{. c #9BA2A5",
"}. c #9CACB4",
"|. c #A1A594",
" X c #A8AD99",
".X c #AFBE82",
"XX c #ADB29C",
"oX c #B1BF86",
"OX c #A3A3A4",
"+X c #AAAAAA",
"@X c #AFB4A1",
"#X c #A2B3BB",
"$X c #AEB4B6",
"%X c #A6B1B6",
"&X c #B5B7AC",
"*X c #B3B4B4",
"=X c #BBBBBB",
"-X c #B3BBBF",
";X c #B0BFC6",
":X c #BABFC2",
">X c #B3C382",
",X c #B3C088",
"<X c #BFC5AF",
"1X c #BEC3B0",
"2X c #BAC6CB",
"3X c #B5C3C9",
"4X c #C2D489",
"5X c #C5D593",
"6X c #C5D39A",
"7X c #C7D891",
"8X c #CADC93",
"9X c #CDDD9B",
"0X c #C7C9BF",
"qX c #C8CEB7",
"wX c #C3C8B6",
"eX c #CCD5AE",
"rX c #CFD5BE",
"tX c #D1D7BF",
"yX c #D1DAB6",
"uX c #CBE284",
"iX c #CEE38D",
"pX c #CEE194",
"aX c #D1E594",
"sX c #D3E59A",
"dX c #D6E89C",
"fX c #D6E3AE",
"gX c #DFECB6",
"hX c #DAE5B7",
"jX c #E1EFB7",
"kX c #C3C3C3",
"lX c #CDCDCD",
"zX c #C1C8CB",
"xX c #C0CCD1",
"cX c #CAD1D4",
"vX c #CFD6D9",
"bX c #D8DDC6",
"nX c LightGray",
"mX c #DBDCDC",
"MX c #D1D9DD",
"NX c #D7DEE2",
"BX c #DCE3C7",
"VX c #DFE1D9",
"CX c #DCE2E4",
"ZX c #E1E7CE",
"AX c #E2EBC9",
"SX c #E7EDD7",
"DX c #E9F3CC",
"FX c #EBF3D3",
"GX c #EDF4DB",
"HX c #F0F7DC",
"JX c #E3E3E3",
"KX c #E3E8EB",
"LX c #EBECEC",
"PX c #E8EAE3",
"IX c #F0F0F0",
"UX c #FEFEFE",
"YX c None",
/* pixels */
"| ] J b J J b v x t.V.B.V.r.<.o./ X.,.2.V.B.S.A.S.B.Z.B.N.r.<.YX",
"2X3X;X}.}.[.).E.} 0.s.s.s.9.6.XXVXPXtXeX6X8XdXdXdXdXdXdX9X6Xs.YX",
"KXCXCXvXzX*X/./.=X+X|.7.S LXUXUXUX0X&XqXtXAXFXFXFXFXFXFXFXSXBXYX",
"KXKXCXcX$X/.mXUXUXUXUXUXUXUXLXS ` ~.|.@X<XbXBXFXGXHXHXHXGXGXGXH.",
"CXNXcX;XmXUXmX*XW.`.&X&XUX/.C D S 5.7. X<XwXyXAXDXDXDXDXAXAXBX,X",
"MXcX2X%X:X`.T.{ T.T.~.q.5.Z V '.UXUXUXUXIXbXeXfXjXjXjXjXgXhXyX,X",
"xX3X#X[.!. .{ } P P 8.9.Z ~.UXUXUXUX~.6.p.>X7XpXdXdXdXdXdX8X6X.X",
"3X#X[.Q.L A B } OXR.V d qXUXUXUX~._ u.a.I.P.Y.uXuXuXuXuXuX4X>Xp.",
"#X].[ m { (.lXLXUXUXUXUXUXUXUXg 4.i.F.U.U.U.U.U.U.U.U.U.U.J.a.e.",
"_.[ x j mXUXUXUXUXUXUXUXUXUXh ,.V.F.D.D.D.D.D.D.D.D.D.D.F.i.e.4.",
"| m P UXUX$Xl > ; @ d 6.UX_ >.v.n.M.M.M.M.M.M.M.M.M.M.M.n.2.X./ ",
"' {.UXQ.; : 8 9 w ; >.Q ~ >.1.c.m.m.m.m.m.m.m.m.m.m.m.m.x.>.^ ! ",
"K ).e 6 6 9 0 7 w 2 j.k.:.g.z.x.x.z.x.x.z.z.x.z.x.x.x.x.:.%.Y f ",
"K x 0 4 7 7 7 = 5 s h.h.z.h.h.z.h.z.h.z.z.h.z.z.h.h.j.h.=.T Y YX",
"' b r 7 4 4 3 = X W h.h.h.h.h.h.h.h.z.h.z.h.h.h.h.h.h.;.+.U f YX",
"] b r 4 4 4 3 % O U.aXaXaXaXaXaXaXaXaXaXaXaXaXh.h.h.f.;.O.I I YX",
"] b r 4 4 4 = % p dXaXaXaXaXaXaXaXaXaXaXaXaXaXz.h.h.f.&.R I YXYX",
"] b r 4 4 4 = O w.D.M.M.A.A.aXaXA.M.M.D.S.aXaXz.h.h.d.@.U I YXYX",
"] b r 4 4 3 * X L.h.h.f.h.h.aXaXh.h.h.h.h.aXaXz.h.f.d.O.U f YXYX",
"] b r 4 4 3 % $ Y.h.f.h.f.h.aXaXf.f.h.h.f.aXaXz.h.h.*.E I I YXYX",
"] b r 4 4 = % < iXf.f.f.f.f.aXaXf.f.f.f.f.pXaXg.f.f.&.R f YXYXYX",
"' v r 4 3 = O 1 aXaXaXiXpXaXpXaXiXiXaXpXaXpXpXh.f.;.@.T f YXYXYX",
"K c 0 3 3 = O i pXpXpXpXpXpXpXpXiX8XaXpXpXpXpX:.;.;.+.U f YXYXYX",
"H c 0 3 = * O a 8Xl.l.l.v.v.8X8Xn.l.l.b.N.8XaX-.*.&.O.U f YXYXYX",
"G c 0 = = * X a 8X&.&.&.&.&.8X8X&.&.&.&.&.8X8X-.&.@.E U f YXYXYX",
"N k 0 = = * o 1 8X&.#.#.#.@.8X8X@.#.#.#.$.8X5X=.@.@.R U f YXYXYX",
"N k 9 = = % o 1 7X+.+.+.+.+.8X8X+.+.@.+.@.5X5X=.+.O.R U f YXYXYX",
"N t 6 = = O o , G.5X5X5X5X5X5X5X5X5X5X5X5X5X5X%.O.O.R U f YXYXYX",
"G t 6 = * % o   i.7X5X5X5X5X5X5X5X5X5X5X5X5X5XO.O.E R U I I YXYX",
"H t 6 = * * X . ( 2.3.3.2.2.2.2.2.2.2.2.2.<.%.O.O.O.E U U I YXYX",
"H t 6 = = = % O i #.#.#.#.#.#.#.#.#.#.#.#.#.#.#.#.#.+.R T U YXYX",
"b r 7 3 3 3 = % ; Q ;.;.;.*.;.;.*.;.;.;.;.;.;.;.*.*.&.+.O.R O.YX"
};
