/* XPM */
static char *openofficeorg23-writer[] = {
/* columns rows colors chars-per-pixel */
"32 32 165 2",
"   c #122A35",
".  c #132D39",
"X  c #15313E",
"o  c #1D333E",
"O  c #232F36",
"+  c #28373E",
"@  c #163442",
"#  c #1A3442",
"$  c #193A4B",
"%  c #1A3F51",
"&  c #243944",
"*  c #233D4B",
"=  c #293A42",
"-  c #1C4154",
";  c #1D465A",
":  c #2B424E",
">  c #244554",
",  c #23495B",
"<  c #2B4653",
"1  c #284857",
"2  c #2A4C5C",
"3  c #314956",
"4  c #334D5B",
"5  c #35505F",
"6  c #3E505C",
"7  c #2E5365",
"8  c #375B6D",
"9  c #3D5865",
"0  c #414D53",
"q  c #40525D",
"w  c #4D5357",
"e  c #4A575E",
"r  c #565B5F",
"t  c #595D5F",
"y  c #425662",
"u  c #445865",
"i  c #425C6A",
"p  c #4A5B67",
"a  c #495E6C",
"s  c #555E62",
"d  c #43616E",
"f  c #4B616E",
"g  c #446372",
"h  c #4C6473",
"j  c #4A6875",
"k  c #4B6C7B",
"l  c #576067",
"z  c #55636C",
"x  c #516774",
"c  c #526976",
"v  c #536B7B",
"b  c #5B6D76",
"n  c #5C6E7B",
"m  c #51707F",
"M  c #59717D",
"N  c #66696B",
"B  c #656D72",
"V  c #606F7A",
"C  c #686D70",
"Z  c #63727C",
"A  c #6F7274",
"S  c #6E777E",
"D  c #717475",
"F  c #767B7E",
"G  c #787A7D",
"H  c #546F80",
"J  c #557281",
"K  c #597383",
"L  c #5C7688",
"P  c #5C7987",
"I  c #5E798B",
"U  c #637581",
"Y  c #607A87",
"T  c #607C8D",
"R  c #687782",
"E  c #6D7A82",
"W  c #6A7D89",
"Q  c #627E91",
"!  c #747D81",
"~  c #65808E",
"^  c #648093",
"/  c #6A8494",
"(  c #6C8798",
")  c #768287",
"_  c #70838D",
"`  c #7E8082",
"'  c #7C858A",
"]  c #718591",
"[  c #758895",
"{  c #738D9E",
"}  c #788690",
"|  c #7D8990",
" . c #7A8D9A",
".. c #7E919D",
"X. c #7D93A2",
"o. c #83898D",
"O. c #888A8D",
"+. c #838D92",
"@. c #8C8F91",
"#. c #879297",
"$. c #85949F",
"%. c #8B9195",
"&. c #8A969D",
"*. c #929699",
"=. c #939A9E",
"-. c #999C9D",
";. c #8196A5",
":. c #8498A6",
">. c #859AA9",
",. c #8E9CA4",
"<. c #8A9EAA",
"1. c #949EA4",
"2. c #9C9EA0",
"3. c #8DA1AC",
"4. c #8DA2B0",
"5. c #93A3AD",
"6. c #9FA0A1",
"7. c #9AA4AA",
"8. c #95A8B5",
"9. c #9CAAB3",
"0. c #9BADB8",
"q. c #9EB0BC",
"w. c #A3A3A3",
"e. c #A3A9AC",
"r. c #A9AAAA",
"t. c #A1AAB1",
"y. c #A6B1B6",
"u. c #A3B2BA",
"i. c #AEB2B4",
"p. c #AAB5BD",
"a. c #B3B4B4",
"s. c #B5BABC",
"d. c #BABBBC",
"f. c #A9B7C1",
"g. c #ADBBC4",
"h. c #AFBEC8",
"j. c #B0BBC2",
"k. c #BABFC2",
"l. c #B5C1C9",
"z. c #BEC3C5",
"x. c #B9C5CC",
"c. c #BCC8CF",
"v. c #BDC9D1",
"b. c #C1C2C3",
"n. c #C3C8CB",
"m. c #CDCDCD",
"M. c #C5CDD1",
"N. c #CBCED1",
"B. c #CBD1D5",
"V. c #CED6DB",
"C. c #CFD8DE",
"Z. c #D1D3D4",
"A. c #D2D9DD",
"S. c #DADCDD",
"D. c #D6DDE1",
"F. c #DADFE2",
"G. c #DDE2E5",
"H. c #DEE4E8",
"J. c #E2E3E3",
"K. c #E1E6E9",
"L. c #E4E8EB",
"P. c #EAEBEC",
"I. c #F1F1F1",
"U. c #FEFEFE",
"Y. c None",
/* pixels */
"{ ~ J m m m k j f [ X.;.X.[ W Z V Z W [ ;.;.>.>.>.>.>.X.X.[ W Y.",
"c.j.u.u.q.9.=.#.' +.1.1.&.o.' r.S.J.n.z.h.k.c.v.v.c.v.v.h.h.e.Y.",
"L.H.D.B.c.i.=.-.d.r.-.O.D P.U.U.I.b.s.b.N.D.H.K.K.L.K.K.K.J.Z.Y.",
"P.L.G.B.i.-.S.U.U.U.U.U.U.U.L.D o.@.2.r.k.N.F.L.L.P.P.P.L.L.K.7.",
"H.G.B.s.S.U.S.a.@.2.i.i.U.-.N A D G O.r.s.z.M.D.H.H.K.F.G.F.D.e.",
"V.B.x.y.k.=.| | o.o.@.+.F C t 6.U.U.U.U.J.B.n.B.C.C.C.C.C.B.M.t.",
"v.l.y.5.&.#.' ) ! F o.o.N *.U.U.U.U.1.' ,.t.j.k.v.v.M.v.v.k.j.1.",
"l.u.3..._ Z l F e.o.s w z.U.U.U.*.N ' 1.9.y.f.g.h.h.h.h.g.f.e.&.",
"q.3._ b ) *.B.I.U.U.U.U.U.U.U.s T X.8.q.q.q.q.q.q.q.q.q.q.4.,.| ",
"3._ f 6 S.U.U.U.U.U.U.U.U.U.s R X.4.4.8.4.4.4.8.4.4.4.4.4.X.W E ",
"[ x ! U.U.i.e = + O 0 ' U.S n { X.;.X.X.X.X.X.X.>.X.X.>.X.] R V ",
"~ 7.U.#.o : < 1 < & b b b K Q ( { { { { { { { { { { { { ( R x z ",
"R ,.4 - > 1 , 1 < < ( Q Q / ( ( ( ( ( ( ( ( ( ( ( { ( Q T b p q ",
"~ g 2 > , , > - * 5 ^ ^ ^ ^ ( Q Q Q Q ( ( ( Q ( Q Q Q Q K a y Y.",
"~ k 7 ; ; ; - - @ g Q ^ Q Q Q Q ( Q Q Q Q Q Q Q Q Q Q T v y q Y.",
"~ k 7 , ; ; - @ X 0.l.l.l.x.x.l.h.h.v.h.h.h.>.Q Q ( Q L x q q Y.",
"T H 7 ; ; ; $ # K h.h.v.h.v.h.k.v.v.h.v.x.x.>.Q Q ^ Q H h 6 Y.Y.",
"Q H 7 ; ; ; $ # $.8.0.8.0.8.0.8.8.8.8.8.8.<.( Q Q Q I H p 6 Y.Y.",
"Q H 7 ; ; % $ . K I Q Q Q Q Q Q Q Q Q Q Q Q Q Q Q Q I x y q Y.Y.",
"Q j 7 ; ; % # # Q Q I Q Q Q Q Q Q Q Q Q Q Q Q Q Q Q K h q 0 Y.Y.",
"Q j 7 ; % % @ * T Q T T I I Q Q I I T I I I I I I L H a q Y.Y.Y.",
"T g 7 % % $ @ * >.h.h.k.v.h.h.x.h.h.>.L I L L I L L H p q Y.Y.Y.",
"Y g 2 % % $ # * 9.h.k.h.h.k.h.k.l.g.>.L K L K L L H x y q Y.Y.Y.",
"L d 2 % $ # @ 3 $.:.>.>.$.:.$.$.>...Y H H K K H L H h y 6 Y.Y.Y.",
"K i 1 $ $ @ . 3 H H H H H H H H H H H H H H H H H v h y 6 Y.Y.Y.",
"n i > $ $ #   < H H H x H x H H x H b v v v b H v v h y 6 Y.Y.Y.",
"M 9 > $ $ @   * x x x x x x x x x v x x x v H H x x a y q Y.Y.Y.",
"M 9 > $ # @   o 1.j.j.j.j.j.j.j.j.j.j.j.j.f.W x x h a y q Y.Y.Y.",
"P 9 > $ $ @ .   $.f.f.f.f.h.j.h.p.f.f.f.f.y.W c x x f u y q Y.Y.",
"Y 9 2 $ $ $ @   H W  . .$.W $.W W $. .+.$.Q L H H H v p y q Y.Y.",
"P g , ; - - $ X 4 L I I L L L L L L L L L L L L L L L x a y Y.Y.",
"k 8 , - ; - - $ % H I I I I I T T T T T T L T T Q Q T K x f x Y."
};
