/* XPM */
static char *openofficeorg23-draw[] = {
/* columns rows colors chars-per-pixel */
"32 32 257 2",
"   c #16292E",
".  c #132D3A",
"X  c #112934",
"o  c #14313E",
"O  c #1A333C",
"+  c #27373A",
"@  c #3A3D2D",
"#  c #163543",
"$  c #183B4B",
"%  c #183747",
"&  c #1B3E50",
"*  c #243944",
"=  c #233F4C",
"-  c #283A41",
";  c #1C4153",
":  c #1D465A",
">  c #2E4343",
",  c #244554",
"<  c #23495A",
"1  c #2A4C5C",
"2  c #274656",
"3  c #37494C",
"4  c #354F5B",
"5  c #2E5365",
"6  c #3C5865",
"7  c #355768",
"8  c #544D2C",
"9  c #5B5533",
"0  c #484A35",
"q  c #64572D",
"w  c #6C5B31",
"e  c #6F5E3F",
"r  c #6F6338",
"t  c #77622D",
"y  c #7C663F",
"u  c #464E44",
"i  c #43525A",
"p  c #415D6A",
"a  c #4E646D",
"s  c #43616E",
"d  c #466572",
"f  c #4B6876",
"g  c #4B6C7B",
"h  c #486572",
"j  c #556C77",
"k  c #51707F",
"l  c #5A737F",
"z  c #57646A",
"x  c #67604F",
"c  c #6E6452",
"v  c #746C5F",
"b  c #63727A",
"n  c #7D776B",
"m  c #737B7F",
"M  c #5C7582",
"N  c #5D7886",
"B  c #557483",
"V  c #637C8A",
"C  c #6B7D86",
"Z  c #747E82",
"A  c #65808E",
"S  c #668290",
"D  c #72838B",
"F  c #7B868B",
"G  c #7E8283",
"H  c #778B95",
"J  c #7F929C",
"K  c #9E701B",
"L  c #9D7526",
"P  c #846939",
"I  c #A2721B",
"U  c #AD7A1D",
"Y  c #B17D1E",
"T  c #A77A28",
"R  c #937D54",
"E  c #8A795B",
"W  c #817868",
"Q  c #B7811F",
"!  c #A78031",
"~  c #BD8520",
"^  c #B18532",
"/  c #BF8D32",
"(  c #BF913E",
")  c #9F824F",
"_  c #8A8375",
"`  c #98886C",
"'  c #958D7E",
"]  c #AE8841",
"[  c #B68D43",
"{  c #BB9248",
"}  c #B39154",
"|  c #A7936E",
" . c #A69779",
".. c #BB9D67",
"X. c #C08720",
"o. c #C38A21",
"O. c #CA8E22",
"+. c #C08F2D",
"@. c #C18E32",
"#. c #CD9022",
"$. c #CD9329",
"%. c #C6902E",
"&. c #C49236",
"*. c #D29423",
"=. c #D69825",
"-. c #DA9924",
";. c #DD9E2B",
":. c #D09938",
">. c #D6A03E",
",. c #E29F26",
"<. c #E3A026",
"1. c #E8A327",
"2. c #E9A428",
"3. c #EEA828",
"4. c #E3A22B",
"5. c #E5A735",
"6. c #EEAB33",
"7. c #E8AB3C",
"8. c #F3AB29",
"9. c #F8AF2A",
"0. c #F2AE34",
"q. c #FDB22B",
"w. c #F7B02E",
"e. c #FCB636",
"r. c #F6B238",
"t. c #CA9D4A",
"y. c #CEA14D",
"u. c #C9A35C",
"i. c #D7A54A",
"p. c #DBAA52",
"a. c #D7AA57",
"s. c #C1A97F",
"d. c #C9AB75",
"f. c #D6AF68",
"g. c #DCB46A",
"h. c #DEB872",
"j. c #D7B474",
"k. c #E6AD45",
"l. c #EAB149",
"z. c #E5B45B",
"x. c #E9B353",
"c. c #EDB857",
"v. c #FDBA42",
"b. c #FDBD4A",
"n. c #F4B541",
"m. c #F4BC58",
"M. c #F7BC50",
"N. c #E0B361",
"B. c #E2BB73",
"V. c #E9BF75",
"C. c #FEC04E",
"Z. c #FDC152",
"A. c #F8C05A",
"S. c #EAC175",
"D. c #E8C17A",
"F. c #F5C163",
"G. c #FDC664",
"H. c #FEC866",
"J. c #FDC96C",
"K. c #FCCA70",
"L. c #FACC7A",
"P. c #F1C77B",
"I. c #FED07C",
"U. c #838A8D",
"Y. c #858E92",
"T. c #8C969B",
"R. c #879297",
"E. c #9D9688",
"W. c #9A9081",
"Q. c #94999C",
"!. c #989897",
"~. c #8E9DA4",
"^. c #8C9FA9",
"/. c #8DA1AA",
"(. c #92A4AC",
"). c #99A5AA",
"_. c #9CACB4",
"`. c #A59B86",
"'. c #A49A89",
"]. c #ACA18D",
"[. c #A7A296",
"{. c #A3A3A3",
"}. c #AAAAA9",
"|. c #A5A8AA",
" X c #A2B3BB",
".X c #ADB3B6",
"XX c #A6B1B6",
"oX c #B3AFA8",
"OX c #B8B1A4",
"+X c gray70",
"@X c #B3B6B8",
"#X c #BBBBBB",
"$X c #B3BABE",
"%X c #B0BFC6",
"&X c #BAC6CB",
"*X c #B7C1C6",
"=X c #CDB485",
"-X c #CFB78C",
";X c #D7BD8C",
":X c #D3B886",
">X c #D0B990",
",X c #C6BEB2",
"<X c #CAC2B6",
"1X c #DEC9A2",
"2X c #D8CCB7",
"3X c #EBCA8C",
"4X c #E2C182",
"5X c #E8CA94",
"6X c #EACE9B",
"7X c #EDD09C",
"8X c #F8CD80",
"9X c #F0CE90",
"0X c #FDD283",
"qX c #F9D38C",
"wX c #F4D49B",
"eX c #F7D89E",
"rX c #FAD590",
"tX c #FED893",
"yX c #FDDB9E",
"uX c #E6CEA1",
"iX c #EFD5A5",
"pX c #E5D7BC",
"aX c #E5D4B7",
"sX c #F3D6A2",
"dX c #FBDDA5",
"fX c #F2DEB9",
"gX c #FFE0A8",
"hX c #FCE6BE",
"jX c #FEE8BE",
"kX c #C2C2C2",
"lX c #CDCDCD",
"zX c #C7C9C7",
"xX c #C0CCD1",
"cX c #C9D1D5",
"vX c #CFD6D9",
"bX c #DFD5C3",
"nX c #D3D4D4",
"mX c #DCDDDD",
"MX c #D1D9DD",
"NX c #D7DEE2",
"BX c #DCE2E4",
"VX c #E4DAC6",
"CX c #E2DFD8",
"ZX c #EDE2CF",
"AX c #E7E4DD",
"SX c #F4E6CC",
"DX c #F4E9D3",
"FX c #F4ECDD",
"GX c #FDEED2",
"HX c #F5EAD5",
"JX c #FEF1DB",
"KX c #E2E2E2",
"LX c #EBECEC",
"PX c #E4E8EA",
"IX c #F2F2F2",
"UX c #FEFEFE",
"YX c None",
/* pixels */
"H S B g B B g h a u.m.m.c.k.t.{ ( [ t.i.c.m.A.A.A.A.A.m.z.a.t.YX",
"&X%X%X X_.(.^.Y.F `.=X=X=X| ` OXmXAX2X2X6XsXdXdXdXdXdXgXiX6X:XYX",
"PXBXBXcX&X.XQ.T.*XoXE.' n IXUXUXIX<X,X2XVXSXGXJXJXJXJXJXJXFXVXYX",
"LXPXBXcX+X!.PXUXUXUXUXUXUXUXIXn _ '.[.OX<XbXZXGXJXJXJXJXJXFXFX:X",
"KXNXcX%XmXUXKX+X_ Q.+XoXUX'.v n W _ W.OX<X2XpXSXGXGXGXGXGXDXZX-X",
"MXcX&XXX%XQ.F U.Y.Y.`. .` v c [.UXUXUXUXAXbXaXfXjXjXjXSXhXfXpX-X",
"xX&X X(.T.H F F D m  .| E E.UXUXUXUX].| s.;X6XdXyXgXgXgXgXiX1X=X",
"%X X(.J Z b z Z }.U.x e zXUXUXUX'.R ..d.;X8X9XqXtXtXrXrXrX3X:Xs.",
" X/.D j F T.nXIXUXUXUXUXUXUXUXc } f.S.L.I.I.I.I.I.I.I.I.L.S.d...",
"^.S a i mXUXUXUXUXUXUXUXUXUXP { z.A.H.H.H.H.H.H.H.H.H.H.F.g.u.{ ",
"H j Z UXUX@Xi + + + w ` UX) ( l.Z.Z.Z.Z.Z.Z.Z.Z.C.C.Z.Z.M.p.{ ] ",
"C ).UXR.+ , 2 2 3 * &.%./ :.7.v.v.v.v.v.v.v.e.C.v.v.C.e.7.:.^ ! ",
"V ~.4 , , 2 1 < 3 u e.0.6.0.e.e.e.e.e.e.e.e.e.e.e.e.e.e.5.%.T I ",
"V d 1 < : < , ; > r q.e.e.q.q.q.q.e.q.q.q.q.e.q.q.q.e.w.;.~ L YX",
"V g 5 : : : : $ O ^ q.M.L.qXI.C.q.q.q.q.q.q.q.q.q.q.q.3.=.Y I YX",
"S g 5 : : : ; # O 9.b.0XdXyXyX0XC.q.q.q.q.q.q.q.q.q.q.2.O.I K YX",
"A g 5 : : : ; o 9 Z.0XyXyXyXyXyX0Xe.q.q.q.q.q.q.q.q.9.<.Q I YXYX",
"A k 5 : : ; $ o ! J.yXI.K.J.tXyXyXC.q.q.q.q.q.q.q.q.8.-.Q I YXYX",
"A k 5 : : ; $ o 4.C.G.C.q.e.0XyXtXC.q.q.q.q.q.q.q.q.3.*.U K YXYX",
"A g 5 : : ; O O q.q.q.q.e.J.yXyXtXq.q.q.q.9.q.q.9.9.1.O.I K YXYX",
"A g 5 ; : ; o 0 9.9.9.e.I.yXdXyXK.w.9.9.9.9.9.9.9.9.<.o.K YXYXYX",
"A g 5 : ; $ o 9 3.8.6.L.eXeXeXL.0.8.8.8.8.8.8.3.8.3.-.Q K YXYXYX",
"A d 1 ; ; % . r 3.3.r.sXeXwXF.6.3.3.3.3.3.3.3.3.3.1.*.Y K YXYXYX",
"B d 1 ; ; % . t 1.2.l.wXwXP.1.1.1.1.1.1.1.1.1.1.1.<.#.Y K YXYXYX",
"M s 1 ; $ # . t <.,.k.7XwX9Xl.4.,.<.<.<.,.k.x.5.<.-.o.Y K YXYXYX",
"l s 2 ; $ # X q -.-.;.3X7X7X7XD.-.,.-.z.D.wX6XV.-.=.o.Y K YXYXYX",
"l p 2 $ $ o X 8 =.=.=.p.3X7X7X7X6X6X6X6X6X6X6XV.=.*.Q Y I YXYXYX",
"l 6 2 $ $ # . @ *.*.#.#.>.B.6X6X6X6X6X6X6X5XB.>.*.#.o.Y I YXYXYX",
"l 6 2 % % o .   O.#.#.#.O.$.i.a.B.B.h.g.p.i.O.O.#.O.~ Y I I YXYX",
"N 6 , % $ # o X L #.#.#.*.#.O.#.#.#.#.#.#.#.O.#.#.*.o.Y Y I YXYX",
"N 6 : $ $ % # . w -.-.-.-.-.-.-.-.-.-.-.-.-.-.-.-.-.*.~ ~ U YXYX",
"g 7 : ; ; ; ; % + / 2.2.2.2.2.2.1.2.2.1.2.2.2.2.2.1.<.=.O.o.O.YX"
};
