/* XPM */
static char *openofficeorg23-printeradmin[] = {
/* columns rows colors chars-per-pixel */
"32 32 149 2",
"   c black",
".  c #0A0A0B",
"X  c #141414",
"o  c #1A1A1A",
"O  c gray13",
"+  c #2A2A2A",
"@  c #263136",
"#  c #2D3032",
"$  c gray20",
"%  c #393939",
"&  c #183B4C",
"*  c #1B3F51",
"=  c #223843",
"-  c #233F4C",
";  c #2A3C45",
":  c #343D41",
">  c #1C4254",
",  c #1D465A",
"<  c #244555",
"1  c #204659",
"2  c #224A5D",
"3  c #2A4552",
"4  c #284857",
"5  c #2C4C5B",
"6  c #31454F",
"7  c #3D464A",
"8  c #3F4B4F",
"9  c #314658",
"0  c #354F5B",
"q  c #3E4D54",
"w  c #3E535D",
"e  c #294E60",
"r  c #2D5264",
"t  c #345667",
"y  c #3C5865",
"u  c #41484B",
"i  c #464B5C",
"p  c #42525B",
"a  c #4D575B",
"s  c #4A585E",
"d  c #515354",
"f  c #425D6A",
"g  c #4D5162",
"h  c #545869",
"j  c #43616E",
"k  c #4F646D",
"l  c #466572",
"z  c #486572",
"x  c #4B6876",
"c  c #4C6B7A",
"v  c #576065",
"b  c #566369",
"n  c #5E6265",
"m  c #566B74",
"M  c #506E7D",
"N  c #596D76",
"B  c #51707F",
"V  c #59717D",
"C  c #66696A",
"Z  c #6B6E6F",
"A  c #626677",
"S  c #6A6F7E",
"D  c #63727A",
"F  c #6B7275",
"G  c #6B7479",
"H  c #6E787D",
"J  c #4C2D9B",
"K  c #594FBF",
"L  c #557483",
"P  c #5A7581",
"I  c #607A87",
"U  c #637C89",
"Y  c #6F7C83",
"T  c #687E89",
"R  c #777E82",
"E  c #7A7E8D",
"W  c #009F62",
"Q  c green",
"!  c #65808E",
"~  c #6F818D",
"^  c #668290",
"/  c #6F8390",
"(  c #758187",
")  c #73828A",
"_  c #788085",
"`  c #7B868C",
"'  c #728791",
"]  c #778C96",
"[  c #758E9A",
"{  c #7E8B91",
"}  c #7F929C",
"|  c #808182",
" . c #80848F",
".. c #818A8E",
"X. c #8B8B8C",
"o. c #838D92",
"O. c #888D91",
"+. c #8B8F9C",
"@. c #879297",
"#. c #849199",
"$. c #8D9192",
"%. c #8C929E",
"&. c #939393",
"*. c #909699",
"=. c #969A9B",
"-. c #999B9C",
";. c #8F93A0",
":. c #8E9DA5",
">. c #8C9FA9",
",. c #969DA1",
"<. c #8DA1AA",
"1. c #92A4AC",
"2. c #9FA2A4",
"3. c #99A5AA",
"4. c #9CACB4",
"5. c #A4A4A4",
"6. c #A0A3AE",
"7. c #A5A9AB",
"8. c #ABADAE",
"9. c #A6B1B6",
"0. c #A2B3BB",
"q. c #AEB4B6",
"w. c #B4B5B5",
"e. c #B3BBBF",
"r. c #BABDBD",
"t. c #8294F7",
"y. c #B0BFC6",
"u. c #BABFC2",
"i. c #B5C3C9",
"p. c #BAC6CB",
"a. c #C0C0C0",
"s. c #C4C7CF",
"d. c #C1C8CB",
"f. c gray80",
"g. c #C0CCD1",
"h. c #C9D1D5",
"j. c #CFD6D9",
"k. c #D1D3D4",
"l. c #D1D9DD",
"z. c #DADCDC",
"x. c #D7DEE2",
"c. c #DDDEE3",
"v. c #DCE2E4",
"b. c #E4E4E4",
"n. c #E3E8EB",
"m. c #E8E9EA",
"M. c #F4F4F4",
"N. c #FEFEFE",
"B. c None",
/* pixels */
"[ ! L c L L c c c c c c x f w @ o o O o O +   B.B.B.B.B.B.B.B.B.",
"p.y.y.4.4.1.:.#.` ` { { ` H G -.z.b.f.a.&.o   B.B.B.B.B.B.B.B.B.",
"n.v.v.j.d.q.-.,.r.8.-.| Z m.N.N.M.w.X.| d X     B.B.B.B.B.B.B.B.",
"m.n.v.h.q.-.z.N.N.N.N.N.N.N.b.Z O o o o o o O $   B.B.B.B.B.B.B.",
"v.v.h.u.z.N.z.w.&.2.8.8.M.=.n C + o % | -.X.o X   B.B.B.B.B.B.B.",
"l.h.p.9.u.,.` ` ..O..._ F n d -.N.N.N.N.b.f.5.X   B.B.B.B.B.B.B.",
"p.p.0.1.%.o.` ) ) ) ) H v &.N.N.N.N.X.o X o X O   B.B.B.B.B.B.B.",
"i.0.<.} ) D b R 7.O.a 7 r.N.N.N.X.o o X o o o     B.B.B.B.B.B.B.",
"0.<.' N ( $.k.M.N.N.N.N.N.N.N.u : o o O   B.B.B.B.B.B.B.B.B.B.B.",
"<.~ k w z.N.N.N.N.N.N.N.N.N.8 q  .+.%.;.;.;.;.;.;.;.;.;.;.A B.B.",
"] m Y N.N.q.s ; ; ; ; H N.b 6 Y %.N.N.N.N.N.N.N.N.N.N.N.N.A B.B.",
"T 3.N.#.= 3 3 5 5 5 4 3 3 3 4 +.c.N.N.N.N.N.N.N.N.N.N.N.N.A B.B.",
"U :.0 - < 4 r r r r r e 2 4 E %.N.N.t.K J K K N.N.N.N.N.A s.B.B.",
"T j r , , 2 2 2 2 2 2 2 1 > ;.c.N.N.N.N.N.N.N.N.N.N.N.N.A B.B.B.",
"! c r , , , , , , , , , > / ;.N.N.t.K J K J K J K N.N.A s.B.B.B.",
"^ c r , , , , , , , , , > *.c.N.N.N.N.N.N.N.N.N.N.N.N.A B.B.B.B.",
"^ c t , , , , , , , , , / ;.N.N.t.K J K J K J K N.N.h s.B.B.B.B.",
"^ L r , , , , , , , , > ;.c.N.N.N.N.N.N.N.N.N.N.N.N.g . . . . i ",
"^ c r , , , , , , , , 6.A N.N.t.K J K J K J K N.N.h S ;.;.s.c.. ",
"^ c r , , , , , , , 6.A c.N.N.N.N.N.N.N.N.N.N.N.N.g ;.;.s.c.;.. ",
"^ c r , , , , , , 6.s.A c.c.c.c.c.c.c.c.c.c.c.c.h S ;.s.c.;.;.. ",
"! l e , > > > > 6.c.s.i i i i i i i i i i i i i i ;.s.c.;.;.A . ",
"U x r > > > > 6.c.c.c.c.c.c.c.c.c.c.c.c.c.c.c.c.c.c.c.;.;.A ;.. ",
"P j 2 > > > > 6.6.6.6.6.6.6.6.6.6.6.6.6.6.6.6.6.6.6.6.;.;.;.A . ",
"P j 5 > * > > E c.c.c.c.c.c.c.c.c.c.c.c.c.c.c.c.c.s.6.;.A A A . ",
"P j 4 & & & & E c.c.c.c.c.c.c.c.c.c.c.c.Q Q Q c.c.s.6.A ;.A A . ",
"P f 4 & & & & E c.c.c.c.c.c.c.c.c.c.c.c.W W W c.c.s.6.;.A i i   ",
"V y 4 & & & & E c.c.c.c.c.c.c.c.c.c.c.c.c.c.c.c.c.s.6.A A     s.",
"P y - & & & & R c.c.c.c.c.c.c.c.c.c.c.c.c.c.c.c.c.s.6.i i   s.B.",
"P y < & & & & E s.s.s.s.s.s.s.s.s.s.s.s.s.s.s.s.s.s.A     s.B.B.",
"P y < * * * & i s.s.s.s.s.s.s.s.s.s.s.s.s.s.s.s.s.    i s.B.B.B.",
"x t 1 * * * * 3                                   i i s.B.B.B.B."
};
