/* XPM */
static char *openofficeorg23-extension[] = {
/* columns rows colors chars-per-pixel */
"32 32 120 2",
"   c black",
".  c #162734",
"X  c #172835",
"o  c #172E40",
"O  c #1F3545",
"+  c #1C384D",
"@  c #1D394E",
"#  c #1E3A50",
"$  c #203D53",
"%  c #213F55",
"&  c #096000",
"*  c #0B6400",
"=  c #0E6800",
"-  c #106D00",
";  c #137200",
":  c #157800",
">  c #187D00",
",  c #2D772E",
"<  c #234158",
"1  c #25435A",
"2  c #27465E",
"3  c #294860",
"4  c #2B4B63",
"5  c #2D4D65",
"6  c #2D4E67",
"7  c #2F516A",
"8  c #31536C",
"9  c #31536D",
"0  c #335670",
"q  c #355771",
"w  c #365974",
"e  c #375A75",
"r  c #385B77",
"t  c #3A5E7A",
"y  c #3C617E",
"u  c #3E6481",
"i  c #406683",
"p  c #426987",
"a  c #446B89",
"s  c #456D8C",
"d  c #4C6F8A",
"f  c #47708E",
"g  c #4D708A",
"h  c #497291",
"j  c #4A7393",
"k  c #4B7594",
"l  c #4C7696",
"z  c #597A93",
"x  c #607A8D",
"c  c #617A8C",
"v  c #1B8200",
"b  c #1D8800",
"n  c #208C00",
"m  c #229100",
"M  c #249400",
"N  c #259700",
"B  c #35862E",
"V  c #36932C",
"C  c #43A32E",
"Z  c #648BA8",
"A  c #6E8BA2",
"S  c #698EAB",
"D  c #AACD3D",
"F  c #ABCE3F",
"G  c #ACCE41",
"H  c #ADCF44",
"J  c #AFD046",
"K  c #B0D049",
"L  c #B2D14D",
"P  c #B3D251",
"I  c #B5D355",
"U  c #B6D458",
"Y  c #819FB6",
"T  c #8CA2B3",
"R  c #90A9BC",
"E  c #81AAC9",
"W  c #89AFCD",
"Q  c #8DB7D7",
"!  c #8EB8D8",
"~  c #8FB8D8",
"^  c #91BBDB",
"/  c #92BAD9",
"(  c #97BDDA",
")  c #97BDDB",
"_  c #9CBCD4",
"`  c #99BEDB",
"'  c #9CC1DC",
"]  c #9EC1DD",
"[  c #96C0E0",
"{  c #9AC4E4",
"}  c #9FC9E9",
"|  c #A2C4DE",
" . c #A5C6DF",
".. c #A6C7E0",
"X. c #A5CFEF",
"o. c #A8C8E1",
"O. c #ABCAE2",
"+. c #AFCDE3",
"@. c #ACD6F6",
"#. c #B9D3E6",
"$. c #BBD4E7",
"%. c #BCD5E7",
"&. c #B4DEFE",
"*. c #BAE4FF",
"=. c #E8FD85",
"-. c #E8FD86",
";. c #C0D3E2",
":. c #C2D8EA",
">. c #C9DDEC",
",. c #CCDFED",
"<. c #CDE6FA",
"1. c #CCEBFF",
"2. c #D0E1EF",
"3. c #D1E2EF",
"4. c #D3E3F0",
"5. c #D5E5F0",
"6. c #D2EBFE",
"7. c #EBF3F8",
"8. c gray100",
"9. c None",
/* pixels */
"9.9.9.9.9.9.9.9.9.9.9.9.9.9.9.9.9.9.9.9.9.9.9.9.9.9.9.9.9.9.9.9.",
"9.9.9.9.9.9.9.9.9.9.9.9.9.9.9.9.9.9.9.9.9.9.9.9.9.9.9.9.9.9.9.9.",
"l l l l l l l l l l l l l l l l l l l l l l k 9.9.9.9.9.9.9.9.9.",
"k 7.7.7.7.7.7.7.7.7.7.7.7.7.7.7.7.7.7.7.7.7.k 9.9.9.9.9.9.9.9.9.",
"j >.>.>.>.>.>.>.>.>.>.>.>.>.>.>.>.>.>.>.>.>.j 9.9.9.9.9.9.9.9.9.",
"j :.:.:.:.:.:.:.:.:.:.:.:.:.:.:.:.:.:.:.:.:.j 9.9.9.9.9.9.9.9.9.",
"s #.#.#.#.#.#.#.#.C N N N C #.#.#.#.#.#.#.#.s 9.9.9.9.9.9.9.9.9.",
"s +.+.+.+.+.+.+.+.M -.-.-.N +.+.+.+.+.+.+.+.s 9.9.9.9.9.9.9.9.9.",
"a o.o.o.o.o.o.o.o.m U U U m o.o.o.o.o.o.o.o.a 9.9.9.9.9.9.9.9.9.",
"p | | | | | | | | n I I I n | | | | | | | | p 9.9.9.9.9.9.9.9.9.",
"i ' ' ' ' V b b b b P P P b b b b V ' ' ' ' i 9.9.i i i i i 9.9.",
"u ( ( ( ( v -.-.-.-.L L L -.-.-.-.v ( ( ( ( u 9.9.u 5.5.5.u 9.9.",
"y / / / / > K K K K K K K K K K K > / / / / y 9.y 4./ / / ;.y 9.",
"t / ! ! ( : J J J J J J J J J H H : ( / Q / t t R Q / ! ! ( A t ",
"e Q Q Q ..B ; ; ; ; H H H ; ; ; ; B  .Q Q Q 3.3.o.! Q Q Q Q Y e ",
"e Q Q Q  .%.,.,.%.- G G G - %.,.,.%. .Q Q Q Q Q Q Q Q Q Q Q _ q ",
"9 Q Q Q Q Q Q Q | * F F F = ' Q Q Q Q Q Q Q Q Q Q Q Q Q Q Q W 8 ",
"9 Q Q Q Q Q Q Q ( * D D F * ( Q Q Q Q Q Q Q Q Q Q Q Q Q Q Q S 6 ",
"8 ! Q Q Q Q Q Q  ., & & & ,  .! Q Q Q Q Q Q 7 7 Z Q Q Q Q Q z O ",
"6 Q Q Q Q Q Q Q  .%.,.2.,.%. .! Q Q Q Q Q Q 6   6 Q Q Q Q E 6   ",
"4 ! ! ! ! ! ! ! ! ! ! ! ! ! ! ! ! ! / ! ! ! 4 9.  4 Q Q ! 4   9.",
"4 / ~ / ^ ^ ^ d 4 2 4 2 2 4 2 d ^ ^ ^ ^ ^ ^ 3 9.9.X 2 4 2 X 9.9.",
"3 [ [ [ [ [ d 2 .           . 2 d [ [ [ [ [ 2 9.9.          9.9.",
"< { { { { { 1     9.9.9.9.9.    1 { { { { { 1 9.9.9.9.9.9.9.9.9.",
"< } } } } } # 9.9.9.9.9.9.9.9.9.< } } } } } < 9.9.9.9.9.9.9.9.9.",
"< X.X.X.X.X.x % 9.9.9.9.9.9.9.% x X.X.X.X.X.% 9.9.9.9.9.9.9.9.9.",
"# @.@.@.@.@.1.x $ $ 9.9.9.$ $ x <.@.@.@.@.@.$ 9.9.9.9.9.9.9.9.9.",
"# *.&.&.&.&.&.6.T # 9.9.9.# T 6.&.&.&.&.&.&.# 9.9.9.9.9.9.9.9.9.",
"+ *.*.*.*.*.*.*.1.+ 9.9.9.+ 1.*.*.*.*.*.*.*.+ 9.9.9.9.9.9.9.9.9.",
"o + + + + + + + + + 9.9.9.+ + + + + + + + + o 9.9.9.9.9.9.9.9.9.",
"                    9.9.9.                    9.9.9.9.9.9.9.9.9.",
"9.9.9.9.9.9.9.9.9.9.9.9.9.9.9.9.9.9.9.9.9.9.9.9.9.9.9.9.9.9.9.9."
};
