/* XPM */
static char *openofficeorg23-impress[] = {
/* columns rows colors chars-per-pixel */
"32 32 257 2",
"   c #16262E",
".  c #132D3A",
"X  c #112934",
"o  c #14313E",
"O  c #1A303B",
"+  c #232F36",
"@  c #28373E",
"#  c #2A3639",
"$  c #3A2F24",
"%  c #163543",
"&  c #183747",
"*  c #183847",
"=  c #183B4B",
"-  c #1B3E50",
";  c #243944",
":  c #233F4C",
">  c #293A42",
",  c #1C4153",
"<  c #1D465A",
"1  c #244454",
"2  c #23495A",
"3  c #2B4654",
"4  c #284857",
"5  c #2A4C5C",
"6  c #204659",
"7  c #364549",
"8  c #354F5B",
"9  c #2E5365",
"0  c #3C5865",
"q  c #355768",
"w  c #54361F",
"e  c #5C3C24",
"r  c #49392B",
"t  c #623A1D",
"y  c #683E20",
"u  c #46423C",
"i  c #5E412A",
"p  c #77411B",
"a  c #6E4C35",
"s  c #704728",
"d  c #74492C",
"f  c #7E5336",
"g  c #42525B",
"h  c #415D6A",
"j  c #4F5C62",
"k  c #4E636D",
"l  c #43616E",
"z  c #466572",
"x  c #4A6875",
"c  c #4B6C7B",
"v  c #486572",
"b  c #556C77",
"n  c #51707F",
"m  c #5A737F",
"M  c #58656B",
"N  c #6D594C",
"B  c #6E5D52",
"V  c #7A675A",
"C  c #63727A",
"Z  c #7F7168",
"A  c #737C7F",
"S  c #5C7582",
"D  c #5D7886",
"F  c #557483",
"G  c #637C8A",
"H  c #6B7D86",
"J  c #737D82",
"K  c #65808E",
"L  c #668290",
"P  c #70848D",
"I  c #7B868B",
"U  c #788286",
"Y  c #748B95",
"T  c #7F929C",
"R  c #9F4000",
"E  c #9E490E",
"W  c #85502D",
"Q  c #9F653F",
"!  c #A24100",
"~  c #AB4400",
"^  c #A74C0F",
"/  c #AB541B",
"(  c #B04600",
")  c #B54800",
"_  c #BC4C01",
"`  c #B85818",
"'  c #AF5F2A",
"]  c #B65C20",
"[  c #BB652D",
"{  c #BA6127",
"}  c #B56E3E",
"|  c #BE6C35",
" . c #886650",
".. c #936647",
"X. c #817166",
"o. c #89786C",
"O. c #867A73",
"+. c #907665",
"@. c #AF6F43",
"#. c #BA7E56",
"$. c #A27D64",
"%. c #C14D00",
"&. c #C7580F",
"*. c #CC5200",
"=. c #C1560D",
"-. c #C15B17",
";. c #D35400",
":. c #D05909",
">. c #D85600",
",. c #DB5800",
"<. c #D16219",
"1. c #CB6D30",
"2. c #CF7133",
"3. c #D16C29",
"4. c #DB742F",
"5. c #D97634",
"6. c #E35B00",
"7. c #EA5D00",
"8. c #EF6000",
"9. c #EB670E",
"0. c #E96D1A",
"q. c #EF711C",
"w. c #F36100",
"e. c #F2690E",
"r. c #FC6500",
"t. c #FE6905",
"y. c #FD6E0F",
"u. c #FE761B",
"i. c #EC7F38",
"p. c #F47E2F",
"a. c #E9772B",
"s. c #C97A45",
"d. c #9A867A",
"f. c #AB8064",
"g. c #A1816B",
"h. c #A18B7C",
"j. c #A48672",
"k. c #EA8039",
"l. c #FE812E",
"z. c #F38339",
"x. c #F9863A",
"c. c #F88538",
"v. c #D68752",
"b. c #CA8D64",
"n. c #C09171",
"m. c #CB9876",
"M. c #CC9978",
"N. c #D29166",
"B. c #D39C76",
"V. c #D7A17D",
"C. c #E38343",
"Z. c #E48E54",
"A. c #E89359",
"S. c #F78D46",
"D. c #FE9047",
"F. c #F39659",
"G. c #FC9B5A",
"H. c #FF9853",
"J. c #E39662",
"K. c #E39D6F",
"L. c #F99D61",
"P. c #ECA06E",
"I. c #E4A276",
"U. c #EBA272",
"Y. c #EBA97D",
"T. c #E5A479",
"R. c #FEA062",
"E. c #FFA96F",
"W. c #F3AA78",
"Q. c #FFAB73",
"!. c #FBAE7B",
"~. c #FFB07C",
"^. c #82898C",
"/. c #818E94",
"(. c #8B8E90",
"). c #88949A",
"_. c #9C8E85",
"`. c #969B9D",
"'. c #94989A",
"]. c #8E9DA4",
"[. c #8C9FA9",
"{. c #969DA1",
"}. c #8DA1AA",
"|. c #92A4AC",
" X c #99A5AA",
".X c #9CACB4",
"XX c #A5948A",
"oX c #AE998B",
"OX c #A79C95",
"+X c #BAA89D",
"@X c #B7A99F",
"#X c #A2A3A3",
"$X c #AAAAAA",
"%X c #A2B3BB",
"&X c #AEB4B6",
"*X c #A6B1B6",
"=X c #B7B0AB",
"-X c #B3B4B4",
";X c #BBBBBB",
":X c #B3BBBF",
">X c #B0BFC6",
",X c #BABFC2",
"<X c #BAC6CB",
"1X c #B5C3C9",
"2X c #D0A182",
"3X c #DFB396",
"4X c #CAB9AE",
"5X c #C6B7AE",
"6X c #C7BFB9",
"7X c #DFBDA8",
"8X c #D4BFB0",
"9X c #EEAD82",
"0X c #EBB28B",
"qX c #E9B694",
"wX c #F2B48B",
"eX c #F9B78A",
"rX c #FEB98B",
"tX c #F6B88F",
"yX c #FCBD93",
"uX c #F1B994",
"iX c #C9C0BB",
"pX c #DAC6B9",
"aX c #FFC096",
"sX c #E5C4AD",
"dX c #E5C9B6",
"fX c #F6CDB2",
"gX c #FED0B1",
"hX c #F3C7AA",
"jX c #C3C3C3",
"kX c #CDCDCD",
"lX c #C1C8CB",
"zX c #C0CCD1",
"xX c #CAD1D4",
"cX c #CFD6D9",
"vX c LightGray",
"bX c #DBDCDC",
"nX c #D8D8D7",
"mX c #D7DEE2",
"MX c #DCE2E4",
"NX c #E0CFC3",
"BX c #EBD3C4",
"VX c #E7DFD9",
"CX c #FEDEC8",
"ZX c #F3D9C7",
"AX c #F4DFD1",
"SX c #E7E0DB",
"DX c #FBE0CE",
"FX c #F4E4D9",
"GX c #FDE2D1",
"HX c #FDE7D8",
"JX c #FFE8D9",
"KX c #E3E3E2",
"LX c #EBECEC",
"PX c #E5E8E9",
"IX c #F1F1F0",
"UX c #FEFEFE",
"YX c None",
/* pixels */
"Y L F c F F c v k s.z.z.i.4.1.[ { { 1.5.k.z.x.x.x.x.c.z.k.2.2.YX",
"<X1X>X%X.X|.]./.U h.m.m.n.f.g.+XnXVXpX7XqXuXyXyXyXyXyXyXuXqXB.YX",
"PXMXMXcXlX&X`.`.;X$XOXd.Z PXUXUXIX6X5XpXdXZXGXGXGXGXGXGXDXFXdXYX",
"LXMXMXxX&X`.bXUXUXUXUXUXUXUXSXO.O._.OX+X4XpXAXHXJXJXJXJXJXFXFXB.",
"MXmXxX,XbXUXnX-X(.#X=X=XUXOXV X.o.o.d.+X4X8XdXfXCXCXCXDXCXZXBX2X",
"mXxX1X*X,X{.I /.^.^.h.j.+.V N OXUXUXUXUXSXNXsXhXgXgXgXgXfXfXdX2X",
"<X<X%X|.)./.I U A A d.f. .XXUXUXUXUXoX$.f.V.0XyXyXyXaXaXyXuX3XM.",
">X>X|.T P C M U  X(.N a 6XUXUXUXXX..#.N.U.W.W.~.~.~.~.~.!.Y.V.b.",
".X}.P b I '.xXLXUXUXUXUXUXUXUXf @.v.A.L.R.R.R.R.R.R.R.R.R.J.b.b.",
"[.L k g nXUXUXUXUXUXUXUXUXUXW | k.D.D.D.D.D.D.D.D.D.D.D.S.C.} } ",
"Y b J UXUX&Xj > @ + s +.UXQ { a.l.l.l.l.l.l.l.l.l.l.l.l.z.5.[ { ",
"H  XUX).; : 3 3 7 ; <.-.` <.q.q.u.u.u.u.u.u.u.u.u.u.u.u.q.<./ / ",
"G ].8 : 1 4 5 4 7 u y.e.e.e.y.y.y.y.y.y.y.y.y.y.y.y.y.y.9.&.^ ! ",
"G v 9 6 < 2 6 , @ s t.t.t.t.t.t.t.t.t.t.t.r.t.t.t.t.t.t.,._ ! YX",
"G c 9 < < < < = O ] Q.Q.Q.Q.Q.Q.Q.Q.Q.Q.E.H.r.r.r.r.r.w.;.~ ! YX",
"L c 9 < < < , % O R.rXrXrXrXrXrXrXrXrXaXrXrXR.r.r.r.r.7.*.~ ! YX",
"L c 9 < < < = % i rXrXrXrXrXrXrXrXrXrXrXrXrXrXx.r.r.r.6._ ! YXYX",
"L c 9 < < < = o } R.r.r.r.r.r.r.r.r.t.r.R.rXrXH.t.r.w.,.) ! YXYX",
"L c 9 < < < = . W.r.r.r.r.r.r.r.r.r.r.r.r.rXrXG.r.r.w.;.~ R YXYX",
"L c 9 < < , % + rXr.r.r.r.r.r.r.r.r.r.r.r.rXrXG.r.r.8.%.! R YXYX",
"K c 9 < < = % r rXr.w.r.r.w.r.w.r.r.r.w.r.rXeXG.r.w.6.%.! YXYXYX",
"K x 5 < , = o e eXw.w.w.w.w.w.w.w.w.w.7.7.rXeXG.w.7.,._ R YXYXYX",
"G v 5 < , % . s wX8.7.7.7.8.8.8.7.8.8.8.7.eXeXF.8.7.;.) R YXYXYX",
"D z 5 , , % . p wX8.8.7.7.7.7.7.8.8.6.8.7.tXtXF.7.6.*.( R YXYXYX",
"S l 5 , = % . p wX6.6.6.6.6.6.6.6.6.6.6.6.wXwXF.6.,.*.( R YXYXYX",
"m l 5 = = % . t 9XZ.,.,.,.,.,.,.,.,.,.,.P.wX0XZ.,.,.%.( R YXYXYX",
"m h 4 = = o . w I.0X0X0X0X0X0X0X0X0X0X0X0X0XY.4.;.;._ ( ! YXYXYX",
"m 0 1 = = % X $ A.0X0X0X0X0X0X0X0X0X0X0X0X0XZ.;.;.;._ ) ! YXYXYX",
"m 0 1 = % % .   3.T.I.I.I.I.I.I.I.I.I.I.J.2.;.*.*.*._ ) ~ ! YXYX",
"G 0 1 = = % . X E :.:.:.:.:.:.:.:.:.:.:.:.*.*.*.*.*.*.) ~ ! YXYX",
"S 0 6 = = = % . y ,.,.,.,.,.,.,.,.,.,.,.,.,.,.,.,.,.;._ _ ( YXYX",
"c q 2 , , , = * @ =.7.7.7.7.7.7.7.7.7.7.7.7.7.7.7.7.6.,.*.%.*.YX"
};
