/* XPM */
static char *openofficeorg23-math[] = {
/* columns rows colors chars-per-pixel */
"32 32 185 2",
"   c #102732",
".  c #122A35",
"X  c #132D3A",
"o  c #15313E",
"O  c #243036",
"+  c #27363E",
"@  c #163543",
"#  c #183747",
"$  c #1B3845",
"%  c #183B4B",
"&  c #1B3E50",
"*  c #213742",
"=  c #263A42",
"-  c #223E4B",
";  c #2C3B44",
":  c #1C4154",
">  c #1D465A",
",  c #25434F",
"<  c #254454",
"1  c #204659",
"2  c #23495A",
"3  c #2B4654",
"4  c #2C4956",
"5  c #2A4C5C",
"6  c #324A52",
"7  c #3C4B54",
"8  c #3C5357",
"9  c #39535A",
"0  c #3E585C",
"q  c #2E5365",
"w  c #355768",
"e  c #3C5865",
"r  c #415A5F",
"t  c #4E5959",
"y  c #575E5C",
"u  c #465E62",
"i  c #415D6A",
"p  c #43616E",
"a  c #4A6365",
"s  c #4D636E",
"d  c #466572",
"f  c #486472",
"g  c #4B6876",
"h  c #4B6C7B",
"j  c #556168",
"k  c #5D6262",
"l  c #5B6D69",
"z  c #556A74",
"x  c #506C7B",
"c  c #596D76",
"v  c #5E716D",
"b  c #51707F",
"n  c #5A7173",
"m  c #5A737F",
"M  c #636A68",
"N  c #696C6B",
"B  c #60736F",
"V  c #68716F",
"C  c #647573",
"Z  c #63727A",
"A  c #647874",
"S  c #657C7A",
"D  c #6F7372",
"F  c #6B7C7B",
"G  c #737675",
"H  c #717876",
"J  c #757978",
"K  c #557483",
"L  c #5C7582",
"P  c #5D7886",
"I  c #637A87",
"U  c #637D8A",
"Y  c #687D88",
"T  c #747D82",
"R  c #6C827D",
"E  c #71817E",
"W  c #7D807F",
"Q  c #65808E",
"!  c #6E8480",
"~  c #668290",
"^  c #728581",
"/  c #72838B",
"(  c #748A85",
")  c #758C88",
"_  c #7E8282",
"`  c #7A858A",
"'  c #7A8985",
"]  c #7C8D89",
"[  c #728791",
"{  c #778C96",
"}  c #758E9A",
"|  c #79918C",
" . c #7C9590",
".. c #7F929C",
"X. c #808786",
"o. c #848A8D",
"O. c #8A8D8D",
"+. c #818E94",
"@. c #888F92",
"#. c #81908C",
"$. c #88908E",
"%. c #839591",
"&. c #819A95",
"*. c #849E99",
"=. c #8D9493",
"-. c #8B979C",
";. c #8B9A97",
":. c #8C9E9A",
">. c #929597",
",. c #92999A",
"<. c #9B9D9D",
"1. c #8F9EA5",
"2. c #8B9FA8",
"3. c #86A09A",
"4. c #88A39D",
"5. c #91A49F",
"6. c #9DA09F",
"7. c #8BA6A1",
"8. c #8DA1AA",
"9. c #8DAAA4",
"0. c #91A4A0",
"q. c #92A4AC",
"w. c #91ACA6",
"e. c #91AEA8",
"r. c #9CA7A5",
"t. c #98A6AC",
"y. c #9EA8A6",
"u. c #9BADAA",
"i. c #9CACB4",
"p. c #95B2AC",
"a. c #9BB1AC",
"s. c #9DB6B1",
"d. c #A2A3A3",
"f. c #A0ACAA",
"g. c #A9AAAA",
"h. c #A1ACB1",
"j. c #A5B1AE",
"k. c #AAB1AF",
"l. c #A2B4B3",
"z. c #A2B3BB",
"x. c #A3B9B5",
"c. c #A5BCB8",
"v. c #ACB3B3",
"b. c #ACB9B6",
"n. c #ACBDB9",
"m. c #B2B3B3",
"M. c #B2BAB9",
"N. c #BBBBBB",
"B. c #B0BFC6",
"V. c #BEBFC0",
"C. c #ADC2BE",
"Z. c #BDC0BF",
"A. c #AFC4C0",
"S. c #B0C5C0",
"D. c #B5C3C9",
"F. c #B6C9C5",
"G. c #BBC3C2",
"H. c #BAC5CB",
"J. c #BBC9C6",
"K. c #BCCDC9",
"L. c #C2C2C2",
"P. c #C0C7CA",
"I. c #C2C8C6",
"U. c #C1CBC9",
"Y. c #CCCDCD",
"T. c #C0CCD1",
"R. c #C3D1CE",
"E. c #C5D4D1",
"W. c #C9D3D2",
"Q. c #CFD6D9",
"!. c #CBD9D6",
"~. c #CDDAD8",
"^. c #D2D5D4",
"/. c #D2DCDA",
"(. c #DDDDDE",
"). c #D7DEE2",
"_. c #DDE3E3",
"`. c #E3E4E4",
"'. c #E5EAEA",
"]. c #E9ECEC",
"[. c #EBF0EF",
"{. c #EEF2F1",
"}. c #F0F0F1",
"|. c #FEFEFE",
" X c None",
/* pixels */
"} Q K h K K x f s 7.l.x.a.w.;.] E ' #.5.a.x.c.C.x.c.x.x.a.4.:. X",
"H.B.B.z.i.q.1.+.` ,.v.j.d.=.o.g.].}.^.W.U.W.~.~./.~././.W.U.k. X",
"'._.).Q.P.m.,.>.Z.g.>.O.J }.|.|.|.L.M.I.^._.].].[.[.[.[.'.'.(. X",
"].'.).W.v.,.`.|.|.|.|.|.|.|.`.J W =.6.k.Z.^.`.[.[.}.{.{.[.].'.k.",
"`.).Y.B.).|.`.N._ <.m.m.|.d.N G G W O.k.L.I.^._.'.[.[.[.].`._.b.",
").W.H.h.V.-.` o.+.o.,.>.J G k d.|.|.|.|.`.^.^./._._._._._.(.^.v.",
"H.B.B.8.1.+.` T T T =.=.J <.|.|.|.|.6.$.d.M.U.!.~././././.E.I.j.",
"B.B.q.+.Y Z j Z g.o.k y Z.|.|.|.<.H =.j.C.J.K.R.E.E.E.E.R.Z.C.6.",
"i.8.[ c ` @.'.|.|.|.|.|.|.|.|.M W u.C.C.K.K.K.C.K.K.K.K.C.C.u.:.",
"2.~ s 7 }.|.|.|.|.|.|.|.|.|.V #.s.C.C.C.C.C.C.C.C.C.C.C.C.s.:.#.",
"{ z Y |.|.I.; = + O t o.|.' ] w.C.C.C.c.C.C.C.x.C.c.c.c.x.5.#.E ",
"Y h.|.,.* - 3 4 6 = ) ' ' #.4.p.p.p.s.s.s.s.s.s.s.s.s.s.w.%.E E ",
"I t.4 - < 2 5 2 4 6 e.w.5.9.p.p.p.p.p.p.p.p.p.p.p.p.p.p.4.E R v ",
"I f 5 > 2 2 1 & , m c.C.C.C.C.C.C.C.C.C.C.C.p.p.p.p.e.9.%.R B  X",
"U g q > > > > % @ t.K.~.~.~.~.~.!.!./.!.!.!.C.e.e.e.e.7.E R l  X",
"~ K q > > > & # o a.K.~.~.~.~.!.!.!.!.!.!.R.9.e.e.e.e.7.R B l  X",
"~ h q > : : : o 0 e.p.!.~.!.K.p.p.e.e.e.e.e.e.e.e.e.9. .R a  X X",
"~ b q > > : : o R 9.p.C.~.~.!.C.e.e.e.e.e.e.e.e.e.9.e. .R R  X X",
"~ b q > > : : .  .e.p.e.C.~.~.!.C.9.9.e.e.e.9.9.e.9.4. .R l  X X",
"~ h q > : : @ $ 9.9.9.9.p.F.!.~.K.C.9.9.9.e.9.9.9.9. .R l M  X X",
"~ h q > : : X , 9.9.9.9.e.p.K.!.!.K.9.9.9.9.9.9.9.9. .R k  X X X",
"Q d 5 > : : o 9 7.7.7.7.4.p.E.!.!.C.7.7.7.7.7.9.7.7. .R l  X X X",
"Q d 5 > : o o a 7.9...7.5.R.!.E.Z.9.4.4.4.4.4.4.4.*.W R M  X X X",
"R d 2 > : : o a  . .7. .Z.E.E.U.p.4.*.*. .4.*.*.4. .R R l  X X X",
"K i 2 : % # X u &.&.&.b.R.R.R.p.&.&.&.%.*. .*. . . .R R l  X X X",
"K i 4 % % o X 8  . .5.R.R.R.j. . . . . . . . . . . .R v l  X X X",
"b i 2 : : o . 6 | 3.Z.R.U.u.u.u.p.f.p.u.p.a.| |  . .R R M  X X X",
"m e 4 % % o X = | a.R.U.U.U.U.U.U.R.R.K.R.Z.4.| R  .R R l  X X X",
"m e , # # o X   (  .K.K.U.U.U.R.U.U.U.U.R.C.W | R R R R B l  X X",
"P e < # : o o   v ( | ) ) | R R R | | R | R | R  .R R R R l  X X",
"P w , : % # o o 0 |  . . . . . . . . . . .|  . . . .| R R R  X X",
"h w > : : : : # , ( 3.3.3.3.3.3.3.3.3.4.*.4.*.3.4.7.4.W R R E  X"
};
