/* XPM */
static char *openofficeorg23-base[] = {
/* columns rows colors chars-per-pixel */
"32 32 257 2",
"   c #14262E",
".  c #132D3A",
"X  c #142B36",
"o  c #15313E",
"O  c #2F2B25",
"+  c #232F35",
"@  c #25353D",
"#  c #29393F",
"$  c #3C322B",
"%  c #3C3E3D",
"&  c #163543",
"*  c #183747",
"=  c #183847",
"-  c #183B4B",
";  c #1B3E50",
":  c #243944",
">  c #233F4C",
",  c #293B43",
"<  c #1C4153",
"1  c #1D465A",
"2  c #244454",
"3  c #23495A",
"4  c #2B4654",
"5  c #284857",
"6  c #2A4C5C",
"7  c #204659",
"8  c #334249",
"9  c #354F5B",
"0  c #2E5365",
"q  c #3C5865",
"w  c #355768",
"e  c #4E301E",
"r  c #5C341B",
"t  c #432E20",
"y  c #4A3526",
"u  c #533320",
"i  c #593C28",
"p  c #61361B",
"a  c #7A2F01",
"s  c #7D3001",
"d  c #7A380D",
"f  c #62402C",
"g  c #684936",
"h  c #724A33",
"j  c #42525B",
"k  c #415D6A",
"l  c #4E5B61",
"z  c #4D626D",
"x  c #43616E",
"c  c #466572",
"v  c #4A6875",
"b  c #4B6C7B",
"n  c #486572",
"m  c #556C77",
"M  c #51707F",
"N  c #5A737F",
"B  c #58656B",
"V  c #695C54",
"C  c #66574D",
"Z  c #73645A",
"A  c #7C6151",
"S  c #63727A",
"D  c #7A6E66",
"F  c #7E7068",
"G  c #777878",
"H  c #5C7582",
"J  c #5D7886",
"K  c #557483",
"L  c #637C8A",
"P  c #6B7D86",
"I  c #737C82",
"U  c #65808E",
"Y  c #668290",
"T  c #70848D",
"R  c #7B858B",
"E  c #788186",
"W  c #748B95",
"Q  c #7F929C",
"!  c #843201",
"~  c #893401",
"^  c #833D13",
"/  c #933801",
"(  c #9D3C01",
")  c #903601",
"_  c #A33E01",
"`  c #8B4419",
"'  c #96420E",
"]  c #994715",
"[  c #92522B",
"{  c #9A562D",
"}  c #995024",
"|  c #9B5A32",
" . c #9A623F",
".. c #A74001",
"X. c #A3450A",
"o. c #AA4101",
"O. c #A44911",
"+. c #A44D18",
"@. c #A8501A",
"#. c #A7511D",
"$. c #B44501",
"%. c #B04807",
"&. c #B94701",
"*. c #BC4801",
"=. c #B24D0F",
"-. c #B74F10",
";. c #BC5414",
":. c #BE591C",
">. c #B4541A",
",. c #AB5723",
"<. c #A75D30",
"1. c #AB6134",
"2. c #BC622C",
"3. c #B26232",
"4. c #BB6B3B",
"5. c #B56839",
"6. c #825E48",
"7. c #8D6248",
"8. c #976344",
"9. c #857369",
"0. c #947969",
"q. c #997763",
"w. c #947F73",
"e. c #867C76",
"r. c #AA6C46",
"t. c #A47457",
"y. c #BC6F41",
"u. c #BD7244",
"i. c #BB7B54",
"p. c #C34B01",
"a. c #C6510A",
"s. c #C65510",
"d. c #CA5F1D",
"f. c #C55D1C",
"g. c #CB6A2E",
"h. c #C76930",
"j. c #C36D38",
"k. c #CE6C30",
"l. c #C86E39",
"z. c #CC713B",
"x. c #D06F34",
"c. c #D07136",
"v. c #D1753D",
"b. c #C97746",
"n. c #C17D54",
"m. c #D37D48",
"M. c #D37942",
"N. c #968479",
"B. c #AF8267",
"V. c #AE8871",
"C. c #B88465",
"Z. c #B58D74",
"A. c #BA927A",
"S. c #BE9177",
"D. c #C78258",
"F. c #D3804D",
"G. c #D48554",
"H. c #D88856",
"J. c #CB8D68",
"K. c #C68B66",
"L. c #C8916F",
"P. c #C8987A",
"I. c #D68D62",
"U. c #DA8E61",
"Y. c #DB9063",
"T. c #D9946A",
"R. c #D29C7B",
"E. c #DB9A72",
"W. c #D59A77",
"Q. c #DBA17D",
"!. c #E0A37D",
"~. c #82898C",
"^. c #888C8E",
"/. c #818E94",
"(. c #8C969B",
"). c #8B9195",
"_. c #978B83",
"`. c #9D928C",
"'. c #969B9D",
"]. c #989B9C",
"[. c #8E9DA4",
"{. c #8C9FA9",
"}. c #959DA0",
"|. c #8DA1AA",
" X c #92A4AC",
".X c #99A5AA",
"XX c #9CACB4",
"oX c #A39186",
"OX c #A59E9A",
"+X c #A39992",
"@X c #BD9982",
"#X c #B2A59D",
"$X c #A2A3A3",
"%X c #AAAAAA",
"&X c #A2B3BB",
"*X c #AEB4B6",
"=X c #A6B1B6",
"-X c #B4AEAB",
";X c #B6B0AD",
":X c #B3B4B4",
">X c #BBBBBB",
",X c #B3BBBF",
"<X c #B0BFC6",
"1X c #BABFC2",
"2X c #BAC6CB",
"3X c #B5C3C9",
"4X c #CEAB96",
"5X c #D4A384",
"6X c #D3A689",
"7X c #D5A88C",
"8X c #DFA582",
"9X c #DBAA8C",
"0X c #D6AC93",
"qX c #DAB096",
"wX c #C2B6AE",
"eX c #CCBDB2",
"rX c #C3BCB8",
"tX c #D4BAAA",
"yX c #E1A681",
"uX c #E2A985",
"iX c #E2AD8B",
"pX c #E5B08F",
"aX c #E4B394",
"sX c #D4C4BB",
"dX c #DAC4B6",
"fX c #E2C0AA",
"gX c #ECC8B1",
"hX c #E7C6B2",
"jX c #C3C3C3",
"kX c #CDCDCD",
"lX c #C1C8CB",
"zX c #C0CCD1",
"xX c #CBD1D4",
"cX c #CFD6D9",
"vX c #DCCCC2",
"bX c LightGray",
"nX c #DBDCDC",
"mX c #D7D7D7",
"MX c #D7DEE2",
"NX c #DCE2E4",
"BX c #E6D5CA",
"VX c #E9D2C4",
"CX c #EBD6C9",
"ZX c #E2DEDC",
"AX c #ECDBD1",
"SX c #F1D9C9",
"DX c #F3DED0",
"FX c #ECE0D9",
"GX c #F4E3D8",
"HX c #F2E0D5",
"JX c #E3E3E2",
"KX c #EBECED",
"LX c #E5E6E7",
"PX c #F1F1F1",
"IX c #F8F7F7",
"UX c #FEFEFE",
"YX c None",
/* pixels */
"W Y K b K K b c z r.j.l.j.3.<.{ { { <.3.j.z.z.z.z.z.c.z.4.5.1.YX",
"2X3X<X&XXX X[./.R N.Z.Z.Z.q.0.#XmXAXsXtX0XqXaXaXaXaXpXaXqX0XL.YX",
"LXNXNXcXlX*X'.'.>X%X+XN.D FXUXUXPXsX;XeXsXCXSXSXDXDXDXDXDXAXvXYX",
"KXNXNXxX*X'.nXUXUXUXUXUXUXUXnXG e._.+X#XwXsXAXHXGXGXGXGXGXGXFXA.",
"NXMXxX1XnXUXmX*X).$X-X;XIXOXZ D F 9.N.OXwXeXdXVXSXSXSXSXCXBXBX@X",
"MXxX3X=X1X'.~././.R N.N.9.Z C OXUXUXUXUXJXvXtXfXgXgXgXgXgXhXdX@X",
"2X2X&X X(./.R I I G N.q.A `.UXUXUXUX`.q.V.P.6XaXaXaXaXaXqXqX4XZ.",
"<X<X XQ T S B E $X^.V f rXUXUXUX_.7.t.C.L.W.R.Q.!.!.!.!.Q.R.P.B.",
"XX|.T m R ).xXKXUXUXUXUXUXUXUXg 8.i.I.H.U.Y.U.U.Y.Y.Y.Y.H.K.C.t.",
"{.Y z j nXUXUXUXUXUXUXUXUXUXh | b.b.m.m.m.m.F.m.F.F.m.m.m.b.r.| ",
"W m P UXUX*Xj , @ + f 0.UX7.} 2.h.g.k.k.k.k.k.k.k.k.k.k.h.1.| [ ",
"P .XUX).: 4 4 4 8 : ] ] ] +.;.f.d.f.d.d.d.d.d.d.d.d.d.d.:.,.` ` ",
"L [.9 2 2 5 6 5 8 % a.s.;.D.E.uXpXpX!.H.k.s.s.s.s.s.s.s.-.] ^ ! ",
"L n 6 7 3 3 1 < # i a.c.c.!.pXpXpXpXpXuXH.c.a.p.p.p.a.*.X./ s YX",
"U b 0 1 1 1 < - o ^ x.Y.uXiXH.v.v.v.H.pXpXU.M.p.p.p.p.&._ ~ a YX",
"U b 0 1 1 1 < = o p.E.E.uXp.p.p.p.p.p.p.E.uXuXp.p.p.p.$.( ! a YX",
"L K w 1 1 1 - & y p.yXiXs.p.p.p.p.p.p.p.a.yXiXp.p.p.&._ ( a YXYX",
"L K 0 1 1 ; * & ^ p.yXiXp.p.p.p.p.p.p.p.p.yXiXp.p.p.p._ ) a YXYX",
"L K 0 1 1 ; * . _ p.yXiXT.p.p.p.p.p.p.p.v.uXiXp.p.p._ _ ! a YXYX",
"L b w 1 1 ; & + p.p.8XiXiXuXm.M.M.M.m.E.iXiXiXp.p.p.&._ ! a YXYX",
"L b 0 1 1 ; & $ p._ yXpXyXiXiXiXiXiX9X9XuXiXiX*.p.p._ / a YXYXYX",
"L b 0 1 ; - & y *.*.yXuXk.H.T.E.E.E.T.G.z.uXiX*._ p._ ) a YXYXYX",
"K K 3 1 ; * & r _ *.!.uX_ p.f.f.:.f.;.&.$.W.iX&.p._ _ ~ a YXYXYX",
"J c 3 ; > * X p p._ 5XiXp._ _ &._ &.$.$.$.5X9X$.p._ ( ~ a YXYXYX",
"K x 6 ; - & . r %._ 8X9X=._ _ &.p._ _ _ _ 5XiX_ _ _ ( ~ a YXYXYX",
"J q 6 ; - * X u _ _ 8X7XJ.:._ _ _ *._ >.b.5X9X_ p._ / ~ a YXYXYX",
"K k 5 - * & X t _ _ L.7X7XR.n.y.j.4.n.L.5X9XR._ _ _ ( ~ a YXYXYX",
"H q 2 - * & . O _ _ _ n.7X7X7X7X6X5X6X7X6XK.O._ _ _ ) ~ ! YXYXYX",
"H q > - * & .   ( _ ( ( 3.n.J.R.5XP.L.n.l._ _ ( ( _ ) ~ ! a YXYX",
"J q 7 - - * &   d _ _ ( _ _ O.>.,.#.+._ _ _ _ _ ( _ / ) ! a YXYX",
"J q 7 ; - - & . u _ _ _ _ _ _ _ _ _ _ _ _ _ _ _ _ _ _ ( / ! YXYX",
"K w 1 ; ; ; - & : ( *.&.*._ _ &.&.$.&.$._ *.p._ p._ _ _ ( / ( YX"
};
